<svg id="Calque_1" data-name="Calque 1" xmlns="http://www.w3.org/2000/svg" xmlns:xlink="http://www.w3.org/1999/xlink" viewBox="0 0 1010.85 1373.3"><defs><style>.cls-1{fill:#4aa9a9;}.cls-2{fill:#515051;}.cls-3{fill:#231c1d;}.cls-4{fill:#5daeb2;}.cls-5{fill:url(#Dégradé_sans_nom_70);}.cls-6{fill:#fcfcfc;}.cls-7{fill:#4d9999;}.cls-8{fill:#3e8482;}.cls-9{fill:#35726f;}.cls-10{fill:#dbd5c6;}.cls-11{fill:#e0dbce;}.cls-12{fill:#eae6df;}.cls-13{fill:#d1cbb4;}.cls-14,.cls-15{fill:none;}.cls-15{stroke:#000;stroke-miterlimit:10;}</style><linearGradient id="Dégradé_sans_nom_70" x1="1312.53" y1="897.1" x2="1473.28" y2="897.1" gradientTransform="matrix(0.77, 0.64, -0.64, 0.77, 933.17, -651.46)" gradientUnits="userSpaceOnUse"><stop offset="0" stop-color="#5daeb2"/><stop offset="0.4" stop-color="#52a0a2"/><stop offset="1" stop-color="#3e8482"/></linearGradient></defs><title>Logo Nohaw</title><path class="cls-1" d="M1546.19,655.31c.1,8.28-6,6.83-11.25,6.67-48.12-1.29-83.87-24.8-114.74-58.61-48-52.54-96-105.08-142.94-158.54-7.49-8.58-8-13.39,0-22.49,51.65-59.6,102.61-119.76,157.52-176.62,21.31-22.06,46.9-36.41,77.9-41.16l.53,0,29.45-1.25c.53,4,1.06,8.08,1.55,12.1.53,4.32-1.58,7-5.93,7.62-45.15,6.82-75.69,35.58-104.49,66.55-40.76,43.8-80.11,88.79-119.36,133.87-6.29,7.19-7.58,11.55-.23,19.66,45.09,49.74,89.15,100.26,136.68,147.82,25,25,53.1,44.56,89.48,50.27C1550.34,642.75,1546.15,649.91,1546.19,655.31Z" transform="translate(-706.37 -71.28)"/><path class="cls-1" d="M1258.28,662.1c-6.49,2.15-12.29.08-17.43-5.61Q1076.17,473.2,911.08,290.27c-1.26-1.42-2.17-3.45-5-3.25l.33,54.86c.62,102.52.93,205,2.2,307.53.18,14.31-8.15,11.28-16.39,11.91-9.41.7-14.69-.16-14.72-12.24-.34-138.29-1.39-276.59-2.05-414.87,0-4.31-3-10.49,3.19-12.66,6.78-2.36,12.22.5,17.2,6.06,47.48,53,95.48,105.54,142.86,158.62C1099,453.87,1161.19,520,1219.93,589c3.4,4,6.77,8,10.35,12.25-.09-16.14-.17-31.77-.28-47.39q-1.11-160.38-2.47-320.78c-.1-9.23,3.7-10.38,11.58-10.19,23.37.58,19.85-2.95,20,18.83q1.4,203.82,2.39,407.63C1261.52,653.72,1264.49,660.07,1258.28,662.1Z" transform="translate(-706.37 -71.28)"/><path class="cls-2" d="M1527.67,1162.58c0,36.25.16,72.49,0,108.73-.06,19-7.06,27.39-25.53,32-.31,0-.61,0-.92,0l-23.8-.28c-.27,0-.53,0-.8,0-12-4.55-19.75-4.49-34.12.21h-1l-23.8-.06H1417c-17.09-4.43-24.65-13.08-24.8-30-.29-37.88,0-75.77-.28-113.64,0-6.23,1.59-8.47,8.23-8.38s9.52,1.12,9.45,8.61c-.36,36.65-.16,73.31-.08,110,0,14.93,6.06,20.93,20.64,21,14.4,0,21.34-6.41,21.41-20.8.15-36.24,0-72.48,0-108.74,0-5.37-1-10.06,7.68-10.14s9.12,3.64,9.08,10.26q-.3,53.14,0,106.3c.15,16.87,5.61,22.59,20.32,23.08,15,.5,22.35-6.16,22.42-21,.15-35.44-.08-70.87.08-106.31,0-5.21-3.33-12.23,7.8-12.36C1529.37,1150.71,1527.67,1156.64,1527.67,1162.58Z" transform="translate(-706.37 -71.28)"/><path class="cls-2" d="M1350.18,1290.32c.26-34.93.12-69.84.1-104.76,0-25-12-36-38.51-35.63-25.52.37-37.2,12.11-36.31,36.53.27,7.27,7.72,11.67,14,7.8,5.15-3.19,2.14-8.78,2.73-13.22,1.61-11.92,7.73-17,21.13-16.71,13.13.25,19.64,5.89,20,17.76.25,8.83-.35,17.69.21,26.48.44,7.15-1.56,10.22-9.51,9.67a149,149,0,0,0-24.72.44c-15.64,1.51-24.8,10.53-25.73,25.82a252.32,252.32,0,0,0,.1,34.89c1,12.76,7.59,21.84,21.65,24l20.91,0c9.31-1.35,14.63-8.3,20.77-14.23.78,1.19,1.45,2.21,2.16,3.19,2.36,3.33,1.64,10.21,7.9,9.06C1353.53,1300.16,1350.14,1294,1350.18,1290.32Zm-35.6-1.25c-13.72,5.82-23.75-1-24.12-15.37-.22-8.39,0-16.81-.06-25.21,0-11,5.61-16.2,16.79-15.91,1.24,0,2.48,0,3.71,0,22.44-.18,22.44-.18,22.45,21.79C1335.12,1276.85,1329.91,1282.56,1314.58,1289.07Z" transform="translate(-706.37 -71.28)"/><path class="cls-2" d="M1109.65,1180.53c-.15-14.4-8.22-24.47-22.4-28.2a67.45,67.45,0,0,0-35.39.17c-14.37,4-21.67,13.33-21.79,28.45q-.4,46.36,0,92.77c.16,16.86,7.32,24.93,24.83,29.62h.74q14.47-.08,29-.1h.62c16.73-4.64,24.33-13.06,24.46-28.74Q1110.1,1227.52,1109.65,1180.53Zm-16.92,91.41c-.26,12.68-7.33,18.61-21.7,19-15.14.45-23.69-5.13-23.93-18q-.91-45.67.08-91.37c.27-12.31,8.28-17.36,23.31-17.13,14.77.19,21.83,5.78,22.17,18.44.39,14.82.11,29.67.12,44.49S1093.05,1257.09,1092.73,1271.94Z" transform="translate(-706.37 -71.28)"/><path class="cls-2" d="M1231.82,1294.08c.08,5.91-.9,9.17-8,8.94-6.32-.18-9.88-1-9.66-8.7.51-17.67-.06-35.37.24-53,.11-6.25-1.68-8.35-8.31-8.61-36.84-1.51-36.84-1.7-36.81,34.32,0,9-.24,18.1.11,27.13.23,5.83-.68,9.15-7.85,9-6.66-.16-9.4-1.7-9.37-9q.43-67.24-.09-134.47c-.06-7.38,2.66-8.65,9.3-8.83,7.06-.17,8,2.78,7.94,8.67-.29,16.46.37,32.93-.27,49.35-.32,7.93,2.46,9.86,9.84,9.38a217.34,217.34,0,0,1,27.25,0c6.74.37,8.41-2.21,8.26-8.49-.39-15.21-.37-30.45-.05-45.66.11-5.64-3.55-13.17,8.28-13.37,12.62-.2,8.8,7.95,8.88,13.91.3,21,.14,41.94.16,62.93C1231.7,1249.66,1231.56,1271.87,1231.82,1294.08Z" transform="translate(-706.37 -71.28)"/><path class="cls-3" d="M1588.07,814.49C1586,804.06,1531.66,781,1531.66,781s-89.75-24.15-106.53,9.89-158.79,256.68-156.35,277.61,127.9,75.09,153.76,41.53S1590.09,824.93,1588.07,814.49Zm-238.89,263.09c17.8,2.81,50.21,6.15,61-4.62,15.25-15.12,132.89-214.31,132-227.9-.78-12.43,28.28-38.72-35.75-60.4,11.57,2,19.74,4.2,19.74,4.2s48,20.35,49.86,29.6S1452.67,1050,1429.85,1079.61C1417.8,1095.24,1381.31,1089.35,1349.18,1077.58Z" transform="translate(-706.37 -71.28)"/><path class="cls-4" d="M1429.85,1079.61c-12,15.63-48.54,9.74-80.67-2,17.8,2.81,50.21,6.15,61-4.62,15.25-15.12,132.89-214.31,132-227.9-.78-12.43,28.28-38.72-35.75-60.4,11.57,2,19.74,4.2,19.74,4.2s48,20.35,49.86,29.6S1452.67,1050,1429.85,1079.61Z" transform="translate(-706.37 -71.28)"/><path class="cls-5" d="M1410.23,1073c-10.84,10.77-43.25,7.43-61,4.62-28.84-10.58-54.2-25.89-55.21-34.65-2.16-18.49,123.31-215.26,138.15-245.32,10.07-20.45,49.88-17.17,74.39-13,64,21.68,35,48,35.75,60.4C1543.12,858.65,1425.48,1057.84,1410.23,1073Z" transform="translate(-706.37 -71.28)"/><ellipse class="cls-6" cx="1344.74" cy="1093" rx="11.88" ry="9.2" transform="translate(-1031.04 1486.52) rotate(-54.66)"/><polygon class="cls-4" points="197.03 704.12 431.6 981.26 409.86 976.88 178.11 706.6 197.03 704.12"/><polygon class="cls-7" points="178.11 706.6 409.86 976.88 395.44 991.76 165.68 720.3 178.11 706.6"/><polygon class="cls-8" points="165.68 720.3 395.44 991.76 395.34 991.86 383.43 1005.95 383 1007.82 382.76 1008.72 151.67 735.68 165.68 720.3"/><polygon class="cls-9" points="151.67 735.68 382.76 1008.72 379.51 1022.62 149.24 754.09 151.67 735.68"/><path class="cls-3" d="M1148.66,1105l4.59,22.38-18.19-9c.73-.87,1.53-1.85,2.42-2.88s2.15-2.4,3.34-3.62,2.33-2.32,3.58-3.4A45.48,45.48,0,0,1,1148.66,1105Z" transform="translate(-706.37 -71.28)"/><path class="cls-10" d="M1116.23,1048.16l28.17,60.28c-1.25,1.08-2.43,2.24-3.58,3.4l-39.08-48.73.06-.06Z" transform="translate(-706.37 -71.28)"/><path class="cls-11" d="M1101.74,1063.11l39.08,48.73c-1.19,1.22-2.31,2.45-3.34,3.62l-48.12-36.36.43-1.86,11.92-14.1Z" transform="translate(-706.37 -71.28)"/><path class="cls-12" d="M1089.36,1079.1l48.12,36.36c-.89,1-1.69,2-2.42,2.88l-49.18-24.44,3.25-13.9Z" transform="translate(-706.37 -71.28)"/><path class="cls-13" d="M1116.23,1048.16l21.73,4.39,10.7,52.45a45.48,45.48,0,0,0-4.26,3.44Z" transform="translate(-706.37 -71.28)"/><line class="cls-14" x1="382.77" y1="1008.72" x2="383.27" y2="1009.32"/><line class="cls-14" x1="395.44" y1="991.76" x2="396.57" y2="993.1"/><path class="cls-2" d="M1570.08,1332.17V1337c-4.95-.11-9.9-.3-14.84-.3q-329.85-.08-659.72-.11c-4.95,0-9.89.19-14.82.3v-7.24q338.23,0,676.48,0C1561.67,1329.67,1566.2,1329.24,1570.08,1332.17Z" transform="translate(-706.37 -71.28)"/><path class="cls-2" d="M1641.74,1438.69q-143.55-.06-287.11,1.15l-143.55,1.39-143.56,1.49Q924,1444.1,780.4,1444.59a73.76,73.76,0,0,1-37.6-10.34,74.15,74.15,0,0,1-31.36-36.88c-.64-1.52-1.12-3.09-1.66-4.65s-1-3.15-1.31-4.76a74.59,74.59,0,0,1-1.7-9.72c-.12-1.64-.3-3.28-.33-4.93l-.07-2.46v-2.27l0-35.89q.09-71.78.46-143.56c1-191.4,3.38-382.81,3.84-574.22q.38-143.55-.13-287.1L710.32,256l-.39-71.78-.19-35.89c0-1.46,0-3,0-4.62s.18-3.13.3-4.7a71.68,71.68,0,0,1,1.58-9.3,70.53,70.53,0,0,1,6.78-17.57,71.89,71.89,0,0,1,25.93-27A71.12,71.12,0,0,1,780.54,75l143.55-1,143.55-.9q143.56-.78,287.11-1.07l287.13-.75a75,75,0,0,1,38.21,10.49,76,76,0,0,1,27.63,28.39,73.53,73.53,0,0,1,4.27,9.07c.65,1.55,1.14,3.15,1.69,4.73s1,3.21,1.34,4.84a77.24,77.24,0,0,1,1.74,9.89c.13,1.67.31,3.34.34,5l.07,2.51v2.27l0,35.89,0,143.56-.27,143.55L1716.43,615q-.62,143.55-2.28,287.1l-1.56,143.56-1.41,143.55q-.6,71.77-.92,143.56l-.13,35.89a85.9,85.9,0,0,1-.42,9,71.38,71.38,0,0,1-1.6,9,68.9,68.9,0,0,1-6.69,16.85,69,69,0,0,1-25.08,25.68A67.85,67.85,0,0,1,1641.74,1438.69Zm0-1.5a66.29,66.29,0,0,0,33.79-9.33,66.61,66.61,0,0,0,32.67-59.16l-.14-35.89q-.32-71.77-.92-143.56l-1.41-143.55-1.55-143.56q-1.5-143.55-2.28-287.1l-.47-143.56-.28-143.55,0-143.56,0-35.89v-2.2l-.05-2c0-1.32-.17-2.63-.26-3.94a62,62,0,0,0-1.35-7.78c-.28-1.28-.69-2.54-1-3.8s-.81-2.51-1.32-3.72a59,59,0,0,0-3.35-7.16A60.54,60.54,0,0,0,1672,95.38,59.14,59.14,0,0,0,1641.85,87l-287.1-.75q-143.55-.43-287.11-1.07l-143.55-.9-143.55-1a63.22,63.22,0,0,0-32.23,8.61,64.41,64.41,0,0,0-23.55,23.86,61.13,61.13,0,0,0-3.68,7.65,59.42,59.42,0,0,0-2.63,8.07,65.43,65.43,0,0,0-1.54,8.36c-.12,1.41-.28,2.82-.33,4.24s-.09,2.83-.09,4.35l-.19,35.89L715.91,256l-.25,71.78q-.49,143.55-.13,287.1c.46,191.41,2.87,382.82,3.84,574.22q.38,71.77.46,143.56l0,35.89v2.21l0,2c0,1.34.18,2.68.28,4a62.46,62.46,0,0,0,1.38,7.94c.29,1.31.71,2.59,1.08,3.89s.83,2.56,1.35,3.79a59.2,59.2,0,0,0,3.43,7.3,61.86,61.86,0,0,0,22.23,23,60.45,60.45,0,0,0,30.76,8.57q143.52.3,287.09,1.87l143.56,1.5,143.55,1.38Q1498.19,1437.23,1641.74,1437.19Z" transform="translate(-706.37 -71.28)"/><path class="cls-2" d="M1555.92,716.49v4.83c-4.94-.11-9.89-.29-14.84-.29q-329.83-.09-659.71-.11c-5,0-9.9.18-14.82.29V714q338.22,0,676.47,0C1547.51,714,1552,713.57,1555.92,716.49Z" transform="translate(-706.37 -71.28)"/><line class="cls-15" x1="214.04" y1="1083.84" x2="213.93" y2="1083.84"/><path class="cls-15" d="M987.35,1151.82" transform="translate(-706.37 -71.28)"/><path class="cls-2" d="M987.88,1157.54v139.19a6.21,6.21,0,0,1-5.91,6.47h0c-8.59,0-16.37-5.53-19.88-14.11l-37.75-92.42a1.67,1.67,0,0,0-1.53-1.08h0a1.76,1.76,0,0,0-1.68,1.83v103.95a1.76,1.76,0,0,1-1.67,1.83h-13.3a1.76,1.76,0,0,1-1.68-1.83V1152.48a1.76,1.76,0,0,1,1.68-1.83h15.13l.11.26,49.54,123.41a1.07,1.07,0,0,0,2.06-.51l-1.5-116.19a6.44,6.44,0,0,1,6.13-6.71h4.2C985.17,1150.91,987.88,1153.88,987.88,1157.54Z" transform="translate(-706.37 -71.28)"/></svg>